<svg width="18" height="18" viewBox="0 0 18 18" fill="none" xmlns="http://www.w3.org/2000/svg">
<path d="M17.4393 2.18176C17.659 2.40143 17.659 2.75758 17.4393 2.97725L16.2661 4.1505L14.0161 1.90049L15.1893 0.727252C15.409 0.507582 15.7651 0.507583 15.9848 0.727253L17.4393 2.18176Z" fill="#10312B"/>
<path d="M15.4706 4.94599L13.2206 2.69599L5.55594 10.3606C5.49419 10.4224 5.44766 10.4976 5.42005 10.5805L4.51492 13.2959C4.44163 13.5157 4.65081 13.7249 4.87068 13.6516L7.58607 12.7465C7.66891 12.7189 7.74419 12.6724 7.80594 12.6106L15.4706 4.94599Z" fill="#10312B"/>
<path fill-rule="evenodd" clip-rule="evenodd" d="M1.125 15.1875C1.125 16.1195 1.88052 16.875 2.8125 16.875H15.1875C16.1195 16.875 16.875 16.1195 16.875 15.1875V8.4375C16.875 8.12684 16.6232 7.875 16.3125 7.875C16.0018 7.875 15.75 8.12684 15.75 8.4375V15.1875C15.75 15.4982 15.4982 15.75 15.1875 15.75H2.8125C2.50184 15.75 2.25 15.4982 2.25 15.1875V2.8125C2.25 2.50184 2.50184 2.25 2.8125 2.25H10.125C10.4357 2.25 10.6875 1.99816 10.6875 1.6875C10.6875 1.37684 10.4357 1.125 10.125 1.125H2.8125C1.88052 1.125 1.125 1.88052 1.125 2.8125V15.1875Z" fill="#10312B"/>
</svg>
