<svg width="18" height="18" viewBox="0 0 18 18" fill="none" xmlns="http://www.w3.org/2000/svg">
<path d="M6.1875 6.1875C6.49816 6.1875 6.75 6.43934 6.75 6.75V13.5C6.75 13.8107 6.49816 14.0625 6.1875 14.0625C5.87684 14.0625 5.625 13.8107 5.625 13.5V6.75C5.625 6.43934 5.87684 6.1875 6.1875 6.1875Z" fill="white"/>
<path d="M9 6.1875C9.31066 6.1875 9.5625 6.43934 9.5625 6.75V13.5C9.5625 13.8107 9.31066 14.0625 9 14.0625C8.68934 14.0625 8.4375 13.8107 8.4375 13.5V6.75C8.4375 6.43934 8.68934 6.1875 9 6.1875Z" fill="white"/>
<path d="M12.375 6.75C12.375 6.43934 12.1232 6.1875 11.8125 6.1875C11.5018 6.1875 11.25 6.43934 11.25 6.75V13.5C11.25 13.8107 11.5018 14.0625 11.8125 14.0625C12.1232 14.0625 12.375 13.8107 12.375 13.5V6.75Z" fill="white"/>
<path fill-rule="evenodd" clip-rule="evenodd" d="M16.3125 3.375C16.3125 3.99632 15.8088 4.5 15.1875 4.5H14.625V14.625C14.625 15.8676 13.6176 16.875 12.375 16.875H5.625C4.38236 16.875 3.375 15.8676 3.375 14.625V4.5H2.8125C2.19118 4.5 1.6875 3.99632 1.6875 3.375V2.25C1.6875 1.62868 2.19118 1.125 2.8125 1.125H6.75C6.75 0.50368 7.25368 0 7.875 0H10.125C10.7463 0 11.25 0.50368 11.25 1.125H15.1875C15.8088 1.125 16.3125 1.62868 16.3125 2.25V3.375ZM4.63279 4.5L4.5 4.56639V14.625C4.5 15.2463 5.00368 15.75 5.625 15.75H12.375C12.9963 15.75 13.5 15.2463 13.5 14.625V4.56639L13.3672 4.5H4.63279ZM2.8125 3.375V2.25H15.1875V3.375H2.8125Z" fill="white"/>
</svg>
