<svg width="77" height="80" viewBox="0 0 77 80" fill="none" xmlns="http://www.w3.org/2000/svg">
<path d="M76.926 12.236V77.2044C76.926 78.744 75.6696 80 74.1296 80H22.5777C21.0376 80 19.7812 78.744 19.7812 77.2044V2.79564C19.7812 1.25601 21.0376 0 22.5777 0H64.6662L76.926 12.236Z" fill="#F3F4F6"/>
<path d="M69.723 24.8307H26.6308C25.1839 24.8307 24 23.9486 24 22.8704C24 21.7923 25.1839 20.9102 26.6308 20.9102H69.723C71.1699 20.9102 72.3538 21.7923 72.3538 22.8704C72.3538 23.9682 71.1962 24.8307 69.723 24.8307Z" fill="#D1D5DB"/>
<path d="M69.723 32.6706H26.6308C25.1839 32.6706 24 31.7884 24 30.7103C24 29.6321 25.1839 28.75 26.6308 28.75H69.723C71.1699 28.75 72.3538 29.6321 72.3538 30.7103C72.3538 31.808 71.1962 32.6706 69.723 32.6706Z" fill="#D1D5DB"/>
<path d="M69.723 40.5124H26.6308C25.1839 40.5124 24 39.6302 24 38.5521C24 37.4739 25.1839 36.5918 26.6308 36.5918H69.723C71.1699 36.5918 72.3538 37.4739 72.3538 38.5521C72.3538 39.6498 71.1962 40.5124 69.723 40.5124Z" fill="#D1D5DB"/>
<path d="M69.723 48.3542H26.6308C25.1839 48.3542 24 47.472 24 46.3939C24 45.3157 25.1839 44.4336 26.6308 44.4336H69.723C71.1699 44.4336 72.3538 45.3157 72.3538 46.3939C72.3538 47.4916 71.1962 48.3542 69.723 48.3542Z" fill="#D1D5DB"/>
<path d="M76.9238 12.236H67.4605C65.9204 12.236 64.6641 10.98 64.6641 9.44036V0L76.9238 12.236Z" fill="#9CA3AF"/>
<circle cx="20" cy="50" r="20" fill="#235B4E"/>
<path d="M20 37V61" stroke="#F9FAFB" stroke-width="3" stroke-linecap="round"/>
<path d="M11 52L20 61L29 52" stroke="#F9FAFB" stroke-width="3" stroke-linecap="round"/>
</svg>
