<svg width="45" height="62" viewBox="0 0 45 62" fill="none" xmlns="http://www.w3.org/2000/svg">
<path d="M44.3245 9.36292V59.0763C44.3245 60.2544 43.3631 61.2155 42.1847 61.2155H2.73749C1.55903 61.2155 0.597656 60.2544 0.597656 59.0763V2.13921C0.597656 0.961094 1.55903 0 2.73749 0H34.9434L44.3245 9.36292Z" fill="#F9FAFB"/>
<path d="M44.3246 9.36292V59.0763C44.3246 60.2544 43.3632 61.2155 42.1848 61.2155H39.1301C40.3085 61.2155 41.2699 60.2544 41.2699 59.0763V9.36292L31.9043 0H34.959L44.3246 9.36292Z" fill="#F9FAFB"/>
<path d="M44.3245 9.36292H37.0832C35.9047 9.36292 34.9434 8.40183 34.9434 7.22371V0L44.3245 9.36292Z" fill="#9CA3AF"/>
<path d="M38.9869 19H6.01306C4.90588 19 4 18.325 4 17.5C4 16.675 4.90588 16 6.01306 16H38.9869C40.0941 16 41 16.675 41 17.5C41 18.34 40.1143 19 38.9869 19Z" fill="#D1D5DB"/>
<path d="M38.9869 25H6.01306C4.90588 25 4 24.325 4 23.5C4 22.675 4.90588 22 6.01306 22H38.9869C40.0941 22 41 22.675 41 23.5C41 24.34 40.1143 25 38.9869 25Z" fill="#D1D5DB"/>
<path d="M38.9869 31H6.01306C4.90588 31 4 30.325 4 29.5C4 28.675 4.90588 28 6.01306 28H38.9869C40.0941 28 41 28.675 41 29.5C41 30.34 40.1143 31 38.9869 31Z" fill="#D1D5DB"/>
<path d="M38.9869 37H6.01306C4.90588 37 4 36.325 4 35.5C4 34.675 4.90588 34 6.01306 34H38.9869C40.0941 34 41 34.675 41 35.5C41 36.34 40.1143 37 38.9869 37Z" fill="#D1D5DB"/>
<path d="M21.4758 51.89H0V43.1936C0 42.5426 0.527195 42 1.19395 42H21.4758C22.127 42 22.6697 42.5271 22.6697 43.1936V50.6964C22.6697 51.3474 22.1425 51.89 21.4758 51.89Z" fill="#235B4E"/>
<path d="M2.024 50L4.432 46.68V47.624L2.128 44.4H3.6L5.192 46.648L4.576 46.656L6.144 44.4H7.552L5.264 47.568V46.64L7.688 50H6.192L4.544 47.624H5.136L3.512 50H2.024ZM8.19525 50V44.4H9.26725L11.6513 48.352H11.0833L13.4273 44.4H14.4913L14.5073 50H13.2913L13.2833 46.264H13.5073L11.6353 49.408H11.0513L9.13925 46.264H9.41125V50H8.19525ZM15.8359 50V44.4H17.1319V48.944H19.9399V50H15.8359Z" fill="white"/>
</svg>
