<svg width="45" height="62" viewBox="0 0 45 62" fill="none" xmlns="http://www.w3.org/2000/svg">
<path d="M44.3245 9.36292V59.0763C44.3245 60.2544 43.3631 61.2155 42.1847 61.2155H2.73749C1.55903 61.2155 0.597656 60.2544 0.597656 59.0763V2.13921C0.597656 0.961094 1.55903 0 2.73749 0H34.9434L44.3245 9.36292Z" fill="#F9FAFB"/>
<path d="M44.3246 9.36292V59.0763C44.3246 60.2544 43.3632 61.2155 42.1848 61.2155H39.1301C40.3085 61.2155 41.2699 60.2544 41.2699 59.0763V9.36292L31.9043 0H34.959L44.3246 9.36292Z" fill="#F9FAFB"/>
<path d="M44.3245 9.36292H37.0832C35.9047 9.36292 34.9434 8.40183 34.9434 7.22371V0L44.3245 9.36292Z" fill="#9CA3AF"/>
<path d="M38.9869 19H6.01306C4.90588 19 4 18.325 4 17.5C4 16.675 4.90588 16 6.01306 16H38.9869C40.0941 16 41 16.675 41 17.5C41 18.34 40.1143 19 38.9869 19Z" fill="#D1D5DB"/>
<path d="M38.9869 25H6.01306C4.90588 25 4 24.325 4 23.5C4 22.675 4.90588 22 6.01306 22H38.9869C40.0941 22 41 22.675 41 23.5C41 24.34 40.1143 25 38.9869 25Z" fill="#D1D5DB"/>
<path d="M38.9869 31H6.01306C4.90588 31 4 30.325 4 29.5C4 28.675 4.90588 28 6.01306 28H38.9869C40.0941 28 41 28.675 41 29.5C41 30.34 40.1143 31 38.9869 31Z" fill="#D1D5DB"/>
<path d="M38.9869 37H6.01306C4.90588 37 4 36.325 4 35.5C4 34.675 4.90588 34 6.01306 34H38.9869C40.0941 34 41 34.675 41 35.5C41 36.34 40.1143 37 38.9869 37Z" fill="#D1D5DB"/>
<path d="M21.4758 51.89H0V43.1936C0 42.5426 0.527195 42 1.19395 42H21.4758C22.127 42 22.6697 42.5271 22.6697 43.1936V50.6964C22.6697 51.3474 22.1425 51.89 21.4758 51.89Z" fill="#335A7F"/>
<path d="M2.05072 50V44.4H4.59472C5.20272 44.4 5.73872 44.5173 6.20272 44.752C6.66672 44.9813 7.02939 45.304 7.29072 45.72C7.55205 46.136 7.68272 46.6293 7.68272 47.2C7.68272 47.7653 7.55205 48.2587 7.29072 48.68C7.02939 49.096 6.66672 49.4213 6.20272 49.656C5.73872 49.8853 5.20272 50 4.59472 50H2.05072ZM3.34672 48.936H4.53072C4.90405 48.936 5.22672 48.8667 5.49872 48.728C5.77605 48.584 5.98939 48.3813 6.13872 48.12C6.29339 47.8587 6.37072 47.552 6.37072 47.2C6.37072 46.8427 6.29339 46.536 6.13872 46.28C5.98939 46.0187 5.77605 45.8187 5.49872 45.68C5.22672 45.536 4.90405 45.464 4.53072 45.464H3.34672V48.936ZM11.3801 50.096C10.9374 50.096 10.5268 50.024 10.1481 49.88C9.77476 49.736 9.44943 49.5333 9.17209 49.272C8.90009 49.0107 8.68676 48.704 8.53209 48.352C8.38276 48 8.30809 47.616 8.30809 47.2C8.30809 46.784 8.38276 46.4 8.53209 46.048C8.68676 45.696 8.90276 45.3893 9.18009 45.128C9.45743 44.8667 9.78276 44.664 10.1561 44.52C10.5294 44.376 10.9348 44.304 11.3721 44.304C11.8148 44.304 12.2201 44.376 12.5881 44.52C12.9614 44.664 13.2841 44.8667 13.5561 45.128C13.8334 45.3893 14.0494 45.696 14.2041 46.048C14.3588 46.3947 14.4361 46.7787 14.4361 47.2C14.4361 47.616 14.3588 48.0027 14.2041 48.36C14.0494 48.712 13.8334 49.0187 13.5561 49.28C13.2841 49.536 12.9614 49.736 12.5881 49.88C12.2201 50.024 11.8174 50.096 11.3801 50.096ZM11.3721 48.992C11.6228 48.992 11.8521 48.9493 12.0601 48.864C12.2734 48.7787 12.4601 48.656 12.6201 48.496C12.7801 48.336 12.9028 48.1467 12.9881 47.928C13.0788 47.7093 13.1241 47.4667 13.1241 47.2C13.1241 46.9333 13.0788 46.6907 12.9881 46.472C12.9028 46.2533 12.7801 46.064 12.6201 45.904C12.4654 45.744 12.2814 45.6213 12.0681 45.536C11.8548 45.4507 11.6228 45.408 11.3721 45.408C11.1214 45.408 10.8894 45.4507 10.6761 45.536C10.4681 45.6213 10.2841 45.744 10.1241 45.904C9.96409 46.064 9.83876 46.2533 9.74809 46.472C9.66276 46.6907 9.62009 46.9333 9.62009 47.2C9.62009 47.4613 9.66276 47.704 9.74809 47.928C9.83876 48.1467 9.96143 48.336 10.1161 48.496C10.2761 48.656 10.4628 48.7787 10.6761 48.864C10.8894 48.9493 11.1214 48.992 11.3721 48.992ZM18.0901 50.096C17.6581 50.096 17.2554 50.0267 16.8821 49.888C16.5141 49.744 16.1941 49.5413 15.9221 49.28C15.6501 49.0187 15.4368 48.712 15.2821 48.36C15.1328 48.008 15.0581 47.6213 15.0581 47.2C15.0581 46.7787 15.1328 46.392 15.2821 46.04C15.4368 45.688 15.6501 45.3813 15.9221 45.12C16.1994 44.8587 16.5221 44.6587 16.8901 44.52C17.2581 44.376 17.6608 44.304 18.0981 44.304C18.5834 44.304 19.0208 44.3893 19.4101 44.56C19.8048 44.7253 20.1354 44.9707 20.4021 45.296L19.5701 46.064C19.3781 45.8453 19.1648 45.6827 18.9301 45.576C18.6954 45.464 18.4394 45.408 18.1621 45.408C17.9008 45.408 17.6608 45.4507 17.4421 45.536C17.2234 45.6213 17.0341 45.744 16.8741 45.904C16.7141 46.064 16.5888 46.2533 16.4981 46.472C16.4128 46.6907 16.3701 46.9333 16.3701 47.2C16.3701 47.4667 16.4128 47.7093 16.4981 47.928C16.5888 48.1467 16.7141 48.336 16.8741 48.496C17.0341 48.656 17.2234 48.7787 17.4421 48.864C17.6608 48.9493 17.9008 48.992 18.1621 48.992C18.4394 48.992 18.6954 48.9387 18.9301 48.832C19.1648 48.72 19.3781 48.552 19.5701 48.328L20.4021 49.096C20.1354 49.4213 19.8048 49.6693 19.4101 49.84C19.0208 50.0107 18.5808 50.096 18.0901 50.096Z" fill="white"/>
</svg>
