<svg width="18" height="18" viewBox="0 0 18 18" fill="none" xmlns="http://www.w3.org/2000/svg">
<path d="M17.4177 9.91941C17.8044 9.36011 17.8044 8.63989 17.4177 8.08059C16.2259 6.35703 13.2574 2.8125 9 2.8125C4.7426 2.8125 1.77412 6.35703 0.582337 8.08059C0.195601 8.63989 0.195601 9.36011 0.582337 9.91941C1.77412 11.643 4.7426 15.1875 9 15.1875C13.2574 15.1875 16.2259 11.643 17.4177 9.91941ZM1.53818 9.32353C1.40256 9.12894 1.40256 8.87106 1.53818 8.67647V8.67647C1.91493 8.13592 2.47085 7.41702 3.18612 6.70175C4.63616 5.2517 6.6157 3.9375 9 3.9375C11.3843 3.9375 13.3638 5.2517 14.8139 6.70175C15.5292 7.41702 16.0851 8.13592 16.4618 8.67647V8.67647C16.5974 8.87106 16.5974 9.12894 16.4618 9.32353V9.32353C16.0851 9.86408 15.5292 10.583 14.8139 11.2983C13.3638 12.7483 11.3843 14.0625 9 14.0625C6.6157 14.0625 4.63616 12.7483 3.18612 11.2983C2.47085 10.583 1.91493 9.86408 1.53818 9.32353V9.32353Z" fill="#DDC9A3"/>
<path d="M9 6.1875C7.4467 6.1875 6.1875 7.4467 6.1875 9C6.1875 10.5533 7.4467 11.8125 9 11.8125C10.5533 11.8125 11.8125 10.5533 11.8125 9C11.8125 7.4467 10.5533 6.1875 9 6.1875ZM5.0625 9C5.0625 6.82538 6.82538 5.0625 9 5.0625C11.1746 5.0625 12.9375 6.82538 12.9375 9C12.9375 11.1746 11.1746 12.9375 9 12.9375C6.82538 12.9375 5.0625 11.1746 5.0625 9Z" fill="#DDC9A3"/>
</svg>
