<svg width="45" height="62" viewBox="0 0 45 62" fill="none" xmlns="http://www.w3.org/2000/svg">
<path d="M44.3245 9.36292V59.0763C44.3245 60.2544 43.3631 61.2155 42.1847 61.2155H2.73749C1.55903 61.2155 0.597656 60.2544 0.597656 59.0763V2.13921C0.597656 0.961094 1.55903 0 2.73749 0H34.9434L44.3245 9.36292Z" fill="#F9FAFB"/>
<path d="M44.3246 9.36292V59.0763C44.3246 60.2544 43.3632 61.2155 42.1848 61.2155H39.1301C40.3085 61.2155 41.2699 60.2544 41.2699 59.0763V9.36292L31.9043 0H34.959L44.3246 9.36292Z" fill="#F9FAFB"/>
<path d="M44.3245 9.36292H37.0832C35.9047 9.36292 34.9434 8.40183 34.9434 7.22371V0L44.3245 9.36292Z" fill="#9CA3AF"/>
<path d="M38.9869 19H6.01306C4.90588 19 4 18.325 4 17.5C4 16.675 4.90588 16 6.01306 16H38.9869C40.0941 16 41 16.675 41 17.5C41 18.34 40.1143 19 38.9869 19Z" fill="#D1D5DB"/>
<path d="M38.9869 25H6.01306C4.90588 25 4 24.325 4 23.5C4 22.675 4.90588 22 6.01306 22H38.9869C40.0941 22 41 22.675 41 23.5C41 24.34 40.1143 25 38.9869 25Z" fill="#D1D5DB"/>
<path d="M38.9869 31H6.01306C4.90588 31 4 30.325 4 29.5C4 28.675 4.90588 28 6.01306 28H38.9869C40.0941 28 41 28.675 41 29.5C41 30.34 40.1143 31 38.9869 31Z" fill="#D1D5DB"/>
<path d="M38.9869 37H6.01306C4.90588 37 4 36.325 4 35.5C4 34.675 4.90588 34 6.01306 34H38.9869C40.0941 34 41 34.675 41 35.5C41 36.34 40.1143 37 38.9869 37Z" fill="#D1D5DB"/>
<path d="M21.4758 51.89H0V43.1936C0 42.5426 0.527195 42 1.19395 42H21.4758C22.127 42 22.6697 42.5271 22.6697 43.1936V50.6964C22.6697 51.3474 22.1425 51.89 21.4758 51.89Z" fill="#A01F45"/>
<path d="M2.914 50V44.4H5.338C5.83933 44.4 6.27133 44.4827 6.634 44.648C6.99667 44.808 7.27667 45.04 7.474 45.344C7.67133 45.648 7.77 46.0107 7.77 46.432C7.77 46.848 7.67133 47.208 7.474 47.512C7.27667 47.816 6.99667 48.0507 6.634 48.216C6.27133 48.376 5.83933 48.456 5.338 48.456H3.634L4.21 47.872V50H2.914ZM4.21 48.016L3.634 47.4H5.266C5.666 47.4 5.96467 47.3147 6.162 47.144C6.35933 46.9733 6.458 46.736 6.458 46.432C6.458 46.1227 6.35933 45.8827 6.162 45.712C5.96467 45.5413 5.666 45.456 5.266 45.456H3.634L4.21 44.84V48.016ZM8.69525 50V44.4H11.2393C11.8473 44.4 12.3833 44.5173 12.8473 44.752C13.3113 44.9813 13.6739 45.304 13.9353 45.72C14.1966 46.136 14.3273 46.6293 14.3273 47.2C14.3273 47.7653 14.1966 48.2587 13.9353 48.68C13.6739 49.096 13.3113 49.4213 12.8473 49.656C12.3833 49.8853 11.8473 50 11.2393 50H8.69525ZM9.99125 48.936H11.1753C11.5486 48.936 11.8713 48.8667 12.1432 48.728C12.4206 48.584 12.6339 48.3813 12.7833 48.12C12.9379 47.8587 13.0153 47.552 13.0153 47.2C13.0153 46.8427 12.9379 46.536 12.7833 46.28C12.6339 46.0187 12.4206 45.8187 12.1432 45.68C11.8713 45.536 11.5486 45.464 11.1753 45.464H9.99125V48.936ZM16.5046 46.92H19.1926V47.96H16.5046V46.92ZM16.6006 50H15.3046V44.4H19.5366V45.44H16.6006V50Z" fill="white"/>
</svg>
